<?xml version="1.0" standalone="no"?><!DOCTYPE svg PUBLIC "-//W3C//DTD SVG 1.1//EN" "http://www.w3.org/Graphics/SVG/1.1/DTD/svg11.dtd"><svg t="1583418653271" class="icon" viewBox="0 0 1024 1024" version="1.1" xmlns="http://www.w3.org/2000/svg" p-id="895" xmlns:xlink="http://www.w3.org/1999/xlink" width="200" height="200"><defs><style type="text/css"></style></defs><path d="M704 192a126.368 126.368 0 0 0-123.232 160.736l-228 228a130.208 130.208 0 1 0 90.496 90.496l228-228A127.776 127.776 0 1 0 704 192zM320 780.8a76.8 76.8 0 1 1 76.8-76.8 76.8 76.8 0 0 1-76.8 76.8z m384-384a76.8 76.8 0 1 1 76.8-76.8 76.8 76.8 0 0 1-76.8 76.8z" fill="" p-id="896"></path><path d="M64 131.2v761.6A67.2 67.2 0 0 0 131.2 960h761.6a67.2 67.2 0 0 0 67.2-67.2V131.2A67.2 67.2 0 0 0 892.8 64H131.2A67.2 67.2 0 0 0 64 131.2zM896 896H128V128h768z" fill="" p-id="897"></path></svg>