<?xml version="1.0" standalone="no"?><!DOCTYPE svg PUBLIC "-//W3C//DTD SVG 1.1//EN" "http://www.w3.org/Graphics/SVG/1.1/DTD/svg11.dtd"><svg t="1583418715981" class="icon" viewBox="0 0 1024 1024" version="1.1" xmlns="http://www.w3.org/2000/svg" p-id="2933" xmlns:xlink="http://www.w3.org/1999/xlink" width="200" height="200"><defs><style type="text/css"></style></defs><path d="M789.333333 149.333333H320c-36.266667 0-64 27.733333-64 64v42.666667h-21.333333c-36.266667 0-64 27.733333-64 64v490.666667c0 36.266667 27.733333 64 64 64h554.666666c36.266667 0 64-27.733333 64-64V213.333333c0-36.266667-27.733333-64-64-64zM213.333333 810.666667V320c0-12.8 8.533333-21.333333 21.333334-21.333333h21.333333v512c0 8.533333 2.133333 14.933333 4.266667 21.333333H234.666667c-12.8 0-21.333333-8.533333-21.333334-21.333333z m597.333334 0c0 12.8-8.533333 21.333333-21.333334 21.333333H320c-12.8 0-21.333333-8.533333-21.333333-21.333333V213.333333c0-12.8 8.533333-21.333333 21.333333-21.333333h469.333333c12.8 0 21.333333 8.533333 21.333334 21.333333v597.333334z" p-id="2934"></path><path d="M725.333333 554.666667H384c-12.8 0-21.333333 8.533333-21.333333 21.333333s8.533333 21.333333 21.333333 21.333333h341.333333c12.8 0 21.333333-8.533333 21.333334-21.333333s-8.533333-21.333333-21.333334-21.333333zM725.333333 682.666667H384c-12.8 0-21.333333 8.533333-21.333333 21.333333s8.533333 21.333333 21.333333 21.333333h341.333333c12.8 0 21.333333-8.533333 21.333334-21.333333s-8.533333-21.333333-21.333334-21.333333zM405.333333 469.333333h85.333334c23.466667 0 42.666667-19.2 42.666666-42.666666v-85.333334c0-23.466667-19.2-42.666667-42.666666-42.666666h-85.333334c-23.466667 0-42.666667 19.2-42.666666 42.666666v85.333334c0 23.466667 19.2 42.666667 42.666666 42.666666z m0-128h85.333334v85.333334h-85.333334v-85.333334z" p-id="2935"></path></svg>